<svg xmlns="http://www.w3.org/2000/svg" xmlns:xlink="http://www.w3.org/1999/xlink" version="1.1" x="0px" y="0px" width="1300.805px" height="332.243px" viewBox="0 0 1300.805 332.243" enable-background="new 0 0 1300.805 332.243" xml:space="preserve"><style>.style0{fill:	#008ABA;}.style1{fill:	#343434;}</style><g><path d="M91.512 303.191c-14.824 7.244-14.099 9 1.6 4.01l239.114-76.688 c15.711-5.038 19.74-19.376 8.951-31.861L177.006 8.654c-10.789-12.484-12.348-11.322-3.466 2.583l106.464 166.7 c8.882 13.9 4 31.21-10.805 38.454L91.512 303.191z" class="style0"/><path d="M8.512 322.883c-12.313 10.984-11.125 12.5 2.6 3.425l209.458-138.507 c13.763-9.101 13.763-23.994 0-33.095L11.151 16.201C-2.613 7.1-3.8 8.6 8.5 19.625l147.576 131.7 c12.313 11 12.3 29 0 39.943L8.512 322.883z" class="style1"/><polygon points="499.7,206 499.7,227.5 413.6,227.5 413.6,91.2 438.4,91.2 438.4,206" class="style1"/><path d="M543.977 94.569c0 4.457-1.443 7.996-4.324 10.616c-2.885 2.623-6.291 3.932-10.222 3.9 c-4.064 0-7.539-1.309-10.419-3.932c-2.885-2.62-4.325-6.159-4.325-10.616c0-4.586 1.44-8.189 4.325-10.812 c2.88-2.62 6.355-3.931 10.419-3.931c3.931 0 7.3 1.3 10.2 3.931C542.534 86.4 544 90 544 94.6 M541.422 227.458h-23.786V124.646h23.786V227.458z" class="style1"/><path d="M598.185 227.458c-6.58-13.496-13.325-28.995-20.233-46.491c-6.911-17.495-13.192-36.27-18.85-56.32h25.368 c1.447 5.8 3.1 12 5 18.577c1.908 6.6 3.9 13.2 6.1 19.855c2.171 6.6 4.4 13 6.7 19.3 c2.304 6.2 4.4 11.8 6.4 16.807c1.972-4.979 4.079-10.581 6.315-16.807c2.236-6.224 4.442-12.646 6.613-19.265 c2.169-6.617 4.242-13.236 6.217-19.855c1.972-6.617 3.683-12.808 5.133-18.577h24.579c-5.657 20.051-11.942 38.825-18.851 56.3 c-6.911 17.496-13.653 32.995-20.232 46.491H598.185z" class="style1"/><path d="M667.032 176.543c0-9.043 1.343-16.97 4.03-23.786c2.685-6.813 6.257-12.483 10.714-17.004 c4.453-4.522 9.565-7.928 15.333-10.222c5.766-2.292 11.663-3.441 17.692-3.441c14.154 0 25.2 4.4 33.1 13.2 c7.928 8.8 11.9 21.9 11.9 39.316c0 1.312-0.034 2.786-0.098 4.423c-0.067 1.641-0.166 3.114-0.295 4.424h-67.82 c0.654 8.3 3.6 14.6 8.7 19.166c5.176 4.5 12.7 6.8 22.5 6.782c5.766 0 11.039-0.522 15.825-1.572 c4.782-1.048 8.551-2.163 11.303-3.342l3.146 19.461c-1.312 0.657-3.115 1.346-5.406 2.064c-2.295 0.722-4.915 1.376-7.864 2 c-2.947 0.591-6.127 1.082-9.533 1.476c-3.409 0.393-6.88 0.589-10.419 0.589c-9.043 0-16.906-1.345-23.59-4.029 s-12.188-6.42-16.513-11.206c-4.325-4.781-7.538-10.418-9.633-16.905C668.08 191.4 667 184.3 667 176.5 M736.032 165.928c0-3.274-0.461-6.389-1.376-9.338c-0.918-2.949-2.261-5.504-4.029-7.666c-1.77-2.163-3.933-3.865-6.487-5.112 c-2.556-1.243-5.603-1.867-9.141-1.867c-3.671 0-6.881 0.688-9.634 2.064c-2.752 1.376-5.079 3.179-6.979 5.4 c-1.901 2.23-3.375 4.785-4.422 7.667c-1.051 2.884-1.771 5.833-2.163 8.846H736.032z" class="style1"/><path d="M819.187 208.98c8.911 0 15.398-1.506 19.462-4.521c4.06-3.014 6.094-7.274 6.094-12.778 c0-3.274-0.688-6.095-2.063-8.453s-3.342-4.487-5.898-6.389c-2.555-1.898-5.67-3.668-9.338-5.308 c-3.67-1.638-7.863-3.243-12.581-4.816c-4.717-1.702-9.272-3.569-13.662-5.603c-4.392-2.03-8.257-4.552-11.598-7.568 c-3.342-3.013-6.03-6.616-8.06-10.812c-2.034-4.193-3.048-9.239-3.048-15.137c0-12.317 4.257-21.983 12.777-28.995 c8.518-7.01 20.116-10.518 34.795-10.518c8.519 0 16.1 1 22.7 2.851c6.617 1.9 11.8 4 15.6 6.192l-7.667 20.1 c-4.457-2.488-9.338-4.389-14.645-5.7c-5.309-1.309-10.781-1.966-16.415-1.966c-6.684 0-11.894 1.376-15.628 4.1 c-3.735 2.752-5.604 6.619-5.604 11.598c0 3 0.6 5.6 1.9 7.765c1.244 2.2 3 4.1 5.3 5.8 c2.291 1.7 5 3.3 8.1 4.718c3.077 1.4 6.5 2.8 10.1 4.129c6.419 2.4 12.2 4.8 17.2 7.2 c5.044 2.4 9.3 5.3 12.8 8.649c3.471 3.3 6.1 7.3 8 11.794c1.834 4.5 2.8 10 2.8 16.4 c0 12.32-4.358 21.854-13.072 28.603c-8.718 6.752-21.462 10.124-38.235 10.124c-5.636 0-10.781-0.362-15.432-1.081 c-4.653-0.723-8.781-1.606-12.385-2.654c-3.605-1.047-6.718-2.129-9.338-3.243c-2.623-1.111-4.718-2.129-6.29-3.048l7.273-20.247 c3.539 2 8.3 3.9 14.4 5.897C803.393 208 810.7 209 819.2 209" class="style0"/><path d="M926.912 229.423c-7.077-0.132-12.944-0.918-17.594-2.358c-4.654-1.44-8.355-3.505-11.107-6.192 c-2.752-2.685-4.687-6.026-5.799-10.025c-1.115-3.996-1.671-8.552-1.671-13.662V78.842l23.786-3.931v117.752 c0 2.9 0.2 5.3 0.7 7.274c0.458 2 1.3 3.6 2.5 5.012c1.18 1.4 2.8 2.4 4.8 3.1 c2.029 0.7 4.6 1.3 7.8 1.671L926.912 229.423z" class="style0"/><path d="M976.057 94.569c0 4.457-1.444 7.996-4.325 10.616c-2.884 2.623-6.29 3.932-10.222 3.9 c-4.064 0-7.538-1.309-10.419-3.932c-2.885-2.62-4.324-6.159-4.324-10.616c0-4.586 1.439-8.189 4.324-10.812 c2.881-2.62 6.354-3.931 10.419-3.931c3.932 0 7.3 1.3 10.2 3.931C974.612 86.4 976.1 90 976.1 94.6 M973.501 227.458h-23.786V124.646h23.786V227.458z" class="style0"/><path d="M1090.66 224.312c-4.717 1.444-10.647 2.753-17.79 3.933c-7.144 1.18-14.645 1.769-22.508 1.8 c-8.128 0-15.401-1.247-21.821-3.734c-6.423-2.488-11.893-6.061-16.414-10.714c-4.521-4.65-7.996-10.286-10.419-16.906 c-2.427-6.616-3.637-14.056-3.637-22.312c0-8.124 1.014-15.496 3.047-22.115c2.03-6.616 5.013-12.286 8.944-17.004 c3.932-4.718 8.715-8.354 14.351-10.91c5.633-2.556 12.12-3.834 19.461-3.834c4.979 0 9.4 0.6 13.2 1.8 c3.8 1.2 7.1 2.5 9.8 3.931V78.842l23.786-3.932V224.312z M1022.447 175.757c0 10.5 2.5 18.7 7.5 24.7 c4.979 6 11.9 8.9 20.6 8.944c3.8 0 7.043-0.162 9.73-0.491c2.685-0.326 4.881-0.688 6.585-1.082v-58.974 c-2.097-1.441-4.884-2.783-8.354-4.03c-3.475-1.244-7.176-1.867-11.107-1.867c-8.65 0-14.974 2.949-18.97 8.8 C1024.444 157.7 1022.4 165.7 1022.4 175.8" class="style0"/><path d="M1115.233 176.543c0-9.043 1.342-16.97 4.028-23.786c2.686-6.813 6.257-12.483 10.714-17.004 c4.454-4.522 9.566-7.928 15.333-10.222c5.767-2.292 11.663-3.441 17.693-3.441c14.153 0 25.2 4.4 33.1 13.2 c7.927 8.8 11.9 21.9 11.9 39.316c0 1.312-0.032 2.786-0.098 4.423c-0.067 1.641-0.166 3.114-0.294 4.424h-67.821 c0.655 8.3 3.6 14.6 8.7 19.166c5.176 4.5 12.7 6.8 22.5 6.782c5.767 0 11.039-0.522 15.825-1.572 c4.783-1.048 8.552-2.163 11.304-3.342l3.146 19.461c-1.312 0.657-3.115 1.346-5.406 2.064c-2.295 0.722-4.915 1.376-7.863 2 c-2.947 0.591-6.128 1.082-9.533 1.476c-3.41 0.393-6.881 0.589-10.42 0.589c-9.043 0-16.905-1.345-23.59-4.029 c-6.684-2.685-12.188-6.42-16.513-11.206c-4.325-4.781-7.537-10.418-9.632-16.905 C1116.28 191.4 1115.2 184.3 1115.2 176.5 M1184.233 165.928c0-3.274-0.462-6.389-1.378-9.338 c-0.918-2.949-2.26-5.504-4.028-7.666c-1.771-2.163-3.933-3.865-6.488-5.112c-2.555-1.243-5.602-1.867-9.141-1.867 c-3.67 0-6.881 0.688-9.633 2.064c-2.753 1.376-5.08 3.179-6.979 5.406c-1.901 2.23-3.375 4.785-4.422 7.7 c-1.051 2.884-1.771 5.833-2.163 8.846H1184.233z" class="style0"/><path d="M1258.933 210.356c6.29 0 10.877-0.753 13.762-2.262c2.881-1.505 4.324-4.094 4.324-7.765 c0-3.406-1.541-6.223-4.619-8.453c-3.081-2.227-8.158-4.65-15.236-7.273c-4.325-1.572-8.29-3.243-11.893-5.013 c-3.606-1.769-6.718-3.833-9.339-6.192c-2.622-2.358-4.686-5.209-6.19-8.551c-1.508-3.342-2.261-7.436-2.261-12.286 c0-9.436 3.471-16.872 10.419-22.312c6.944-5.436 16.381-8.158 28.307-8.158c6.027 0 11.8 0.6 17.3 1.7 c5.505 1.1 9.6 2.2 12.4 3.243l-4.324 19.266c-2.623-1.18-5.965-2.261-10.026-3.244c-4.063-0.983-8.781-1.475-14.154-1.475 c-4.849 0-8.78 0.821-11.795 2.458c-3.015 1.64-4.52 4.162-4.52 7.568c0 1.7 0.3 3.2 0.9 4.5 c0.589 1.3 1.6 2.5 3 3.636c1.441 1.1 3.3 2.2 5.7 3.342c2.359 1.1 5.2 2.3 8.7 3.4 c5.633 2.1 10.4 4.2 14.3 6.192c3.931 2 7.2 4.3 9.7 6.881c2.557 2.6 4.4 5.5 5.6 8.7 c1.179 3.3 1.8 7.2 1.8 11.795c0 9.829-3.637 17.269-10.909 22.312c-7.274 5.043-17.662 7.567-31.158 7.6 c-9.043 0-16.317-0.756-21.822-2.261c-5.503-1.504-9.371-2.718-11.598-3.636l4.129-19.855c3.539 1.4 7.8 2.8 12.7 4.1 C1247.039 209.7 1252.6 210.4 1258.9 210.4" class="style0"/></g><g display="none"><defs><rect x="-225.7" y="-212.2" width="1764.3" height="764"/></defs><clipPath display="inline"><use xlink:href="#SVGID_1_" overflow="visible"/></clipPath></g></svg>